<svg xmlns="http://www.w3.org/2000/svg" xmlns:svg="http://www.w3.org/2000/svg" id="svg5" width="1193.437" height="685.726" version="1.1" viewBox="0 0 315.763 181.432"><defs id="defs2"><rect id="rect988" width="97.93" height="63.238" x="10.301" y="594.621"/><rect id="rect642" width="316.469" height="16.671" x="293.359" y="83.415"/><rect id="rect7012" width="280.387" height="94.895" x="-161.653" y="22.536"/><marker style="overflow:visible" id="marker6776" markerHeight="5.93" markerWidth="6.135" orient="auto-start-reverse" preserveAspectRatio="xMidYMid" refX="0" refY="0" viewBox="0 0 6.135 5.93"><path id="path6774" d="m -0.21114562,-4.1055728 6.42229122,3.21114561 a 1,1 90 0 1 0,1.78885438 L -0.21114562,4.1055728 A 1.236068,1.236068 31.717474 0 1 -2,3 v -6 a 1.236068,1.236068 148.28253 0 1 1.78885438,-1.1055728 z" transform="scale(0.7)" style="fill:context-stroke;fill-rule:evenodd;stroke:none"/></marker><marker style="overflow:visible" id="RoundedArrow" markerHeight="5.93" markerWidth="6.135" orient="auto-start-reverse" preserveAspectRatio="xMidYMid" refX="0" refY="0" viewBox="0 0 6.135 5.93"><path id="path1367" d="m -0.21114562,-4.1055728 6.42229122,3.21114561 a 1,1 90 0 1 0,1.78885438 L -0.21114562,4.1055728 A 1.236068,1.236068 31.717474 0 1 -2,3 v -6 a 1.236068,1.236068 148.28253 0 1 1.78885438,-1.1055728 z" transform="scale(0.7)" style="fill:context-stroke;fill-rule:evenodd;stroke:none"/></marker><rect id="rect1351" width="289.832" height="64.882" x="126.201" y="652.605"/><marker style="overflow:visible" id="RoundedArrow-9" markerHeight="5.93" markerWidth="6.135" orient="auto-start-reverse" preserveAspectRatio="xMidYMid" refX="0" refY="0" viewBox="0 0 6.135 5.93"><path id="path1367-2" d="m -0.21114562,-4.1055728 6.42229122,3.21114561 a 1,1 90 0 1 0,1.78885438 L -0.21114562,4.1055728 A 1.236068,1.236068 31.717474 0 1 -2,3 v -6 a 1.236068,1.236068 148.28253 0 1 1.78885438,-1.1055728 z" transform="scale(0.7)" style="fill:context-stroke;fill-rule:evenodd;stroke:none"/></marker><marker style="overflow:visible" id="marker6776-6" markerHeight="5.93" markerWidth="6.135" orient="auto-start-reverse" preserveAspectRatio="xMidYMid" refX="0" refY="0" viewBox="0 0 6.135 5.93"><path id="path6774-7" d="m -0.21114562,-4.1055728 6.42229122,3.21114561 a 1,1 90 0 1 0,1.78885438 L -0.21114562,4.1055728 A 1.236068,1.236068 31.717474 0 1 -2,3 v -6 a 1.236068,1.236068 148.28253 0 1 1.78885438,-1.1055728 z" transform="scale(0.7)" style="fill:context-stroke;fill-rule:evenodd;stroke:none"/></marker></defs><g id="layer1" transform="translate(47.540898,-1.4678791)"><rect style="fill:#fff;stroke:#fff;stroke-width:.473863;stroke-dasharray:none" id="rect1640" width="315.29" height="180.958" x="-47.304" y="1.705"/><rect style="opacity:1;fill:#e6e6e6;stroke:#000;stroke-width:.865;stroke-dasharray:.865,.865;stroke-dashoffset:0" id="rect1738" width="268.321" height="143.502" x="-38.733" y="23.559"/><text xml:space="preserve" style="font-size:8.35798px;line-height:1.25;font-family:sans-serif;letter-spacing:0;word-spacing:0;stroke-width:.696498" id="text1898" x="-124.035" y="-27.8" transform="rotate(-90)"><tspan id="tspan1896" style="stroke-width:.696498" x="-124.035" y="-27.8">SoA container</tspan></text><rect style="fill:#fff6d5;stroke:#000;stroke-width:.365;stroke-dasharray:none" id="rect234" width="114.298" height="126.967" x="104.303" y="30.374" ry="6.761"/><rect style="fill:#e9afaf;stroke:#000;stroke-width:.365001;stroke-dasharray:none" id="rect950" width="96.753" height="8.972" x="112.751" y="37.882" ry="0"/><rect style="fill:#2c5aa0;stroke:#000;stroke-width:.7;stroke-dasharray:none" id="rect1108" width="20.233" height="104.026" x="118.383" y="41.501"/><rect style="fill:#2c5aa0;stroke:#000;stroke-width:.7;stroke-dasharray:none" id="rect1110" width="10.503" height="103.698" x="150.924" y="41.638"/><rect style="fill:#2c5aa0;stroke:#000;stroke-width:.7;stroke-dasharray:none" id="rect1112" width="31.49" height="103.957" x="173.494" y="41.361"/><text xml:space="preserve" style="font-size:6.61583px;line-height:1.25;font-family:sans-serif;letter-spacing:0;word-spacing:0;stroke-width:.551318" id="text1168" x="107.526" y="153.949"><tspan id="tspan1166" style="stroke-width:.551318" x="107.526" y="153.949">Tag</tspan></text><path style="fill:none;stroke:#000;stroke-width:.4;stroke-linecap:butt;stroke-linejoin:miter;stroke-dasharray:none;stroke-opacity:1" id="path1224" d="M 128.29554,41.638438 V 145.19882"/><path style="fill:none;stroke:#000;stroke-width:.4;stroke-linecap:butt;stroke-linejoin:miter;stroke-dasharray:none;stroke-opacity:1" id="path1226" d="M 183.61656,41.199277 V 145.26493"/><path style="fill:none;stroke:#000;stroke-width:.4;stroke-linecap:butt;stroke-linejoin:miter;stroke-dasharray:none;stroke-opacity:1" id="path1228" d="M 194.65003,41.408806 V 145.22198"/><path style="fill:none;stroke:#000;stroke-width:.264583px;stroke-linecap:butt;stroke-linejoin:miter;stroke-opacity:1" id="path6566" d="m 118.52366,50.524656 h 20.12825"/><path style="fill:none;stroke:#000;stroke-width:.264583px;stroke-linecap:butt;stroke-linejoin:miter;stroke-opacity:1" id="path6566-0" d="m 118.32431,59.785267 h 20.12825"/><path style="fill:none;stroke:#000;stroke-width:.264583px;stroke-linecap:butt;stroke-linejoin:miter;stroke-opacity:1" id="path6566-62" d="M 118.72845,70.68417 H 138.8567"/><path style="fill:none;stroke:#000;stroke-width:.264583px;stroke-linecap:butt;stroke-linejoin:miter;stroke-opacity:1" id="path6566-9" d="m 118.42719,115.68896 h 20.12825"/><path style="fill:none;stroke:#000;stroke-width:.264583px;stroke-linecap:butt;stroke-linejoin:miter;stroke-opacity:1" id="path6566-2" d="M 118.30145,125.66029 H 138.4297"/><path style="fill:none;stroke:#000;stroke-width:.264583px;stroke-linecap:butt;stroke-linejoin:miter;stroke-opacity:1" id="path6566-02" d="m 118.16383,135.76761 h 20.12825"/><path style="fill:none;stroke:#000;stroke-width:.264583px;stroke-linecap:butt;stroke-linejoin:miter;stroke-opacity:1" id="path6694" d="m 122.81798,45.577804 h 10.86311 l -10.77939,9.331952 h 10.28844 l -10.05797,10.662097 h 9.79391"/><path style="fill:none;stroke:#000;stroke-width:.264583px;stroke-linecap:butt;stroke-linejoin:miter;stroke-opacity:1;marker-end:url(#marker6776)" id="path6696" d="m 123.48661,120.28369 h 10.36912 l -9.92154,9.92155 h 9.91317 l -10.28265,10.28265 h 10.11942"/><path style="fill:none;stroke:#000;stroke-width:.264583px;stroke-linecap:butt;stroke-linejoin:miter;stroke-opacity:1" id="path2038" d="m 150.92522,50.516112 h 10.5726"/><path style="fill:none;stroke:#000;stroke-width:.264583px;stroke-linecap:butt;stroke-linejoin:miter;stroke-opacity:1" id="path2040" d="m 173.33306,50.516287 h 31.8329"/><path style="fill:none;stroke:#000;stroke-width:.264583px;stroke-linecap:butt;stroke-linejoin:miter;stroke-opacity:1" id="path2044" d="m 150.93496,59.772968 h 10.62966"/><path style="fill:none;stroke:#000;stroke-width:.264583px;stroke-linecap:butt;stroke-linejoin:miter;stroke-opacity:1" id="path2046" d="M 150.99018,70.693158 H 161.4122"/><path style="fill:none;stroke:#000;stroke-width:.264583px;stroke-linecap:butt;stroke-linejoin:miter;stroke-opacity:1" id="path2048" d="m 150.98367,115.72148 h 10.50289"/><path style="fill:none;stroke:#000;stroke-width:.264583px;stroke-linecap:butt;stroke-linejoin:miter;stroke-opacity:1" id="path2050" d="m 150.91942,125.69087 h 10.55384"/><path style="fill:none;stroke:#000;stroke-width:.264583px;stroke-linecap:butt;stroke-linejoin:miter;stroke-opacity:1" id="path2052" d="m 150.78181,135.76618 h 10.54794"/><path style="fill:none;stroke:#000;stroke-width:.264583px;stroke-linecap:butt;stroke-linejoin:miter;stroke-opacity:1" id="path2054" d="m 173.58643,59.83321 h 31.43603"/><path style="fill:none;stroke:#000;stroke-width:.264583px;stroke-linecap:butt;stroke-linejoin:miter;stroke-opacity:1" id="path2056" d="m 173.59471,70.678505 h 31.32504"/><path style="fill:none;stroke:#000;stroke-width:.264583px;stroke-linecap:butt;stroke-linejoin:miter;stroke-opacity:1" id="path2058" d="m 173.57608,115.69239 h 31.3127"/><path style="fill:none;stroke:#000;stroke-width:.264583px;stroke-linecap:butt;stroke-linejoin:miter;stroke-opacity:1" id="path2060" d="m 173.38118,125.65218 h 31.61743"/><path style="fill:none;stroke:#000;stroke-width:.264583px;stroke-linecap:butt;stroke-linejoin:miter;stroke-opacity:1" id="path2062" d="m 173.289,135.80316 h 31.75295"/><text id="text1349" transform="matrix(0.68859198,0,0,0.68859198,51.350816,-276.11788)" xml:space="preserve" style="font-size:9.73403px;line-height:1.25;font-family:sans-serif;letter-spacing:0;word-spacing:0;white-space:pre;shape-inside:url(#rect1351);display:inline"><tspan id="tspan2000" x="126.201" y="661.462"><tspan style="font-family:'DejaVu Sans Mono';-inkscape-font-specification:'DejaVu Sans Mono'" id="tspan1998">field_index</tspan></tspan></text><path style="fill:none;stroke:#000;stroke-width:.465;stroke-linecap:butt;stroke-linejoin:miter;stroke-dasharray:none;stroke-opacity:1;marker-end:url(#RoundedArrow)" id="path1355" d="M 146.72355,173.37686 135.85287,153.91405"/><path style="fill:none;stroke:#000;stroke-width:.465;stroke-linecap:butt;stroke-linejoin:miter;stroke-dasharray:none;stroke-opacity:1;marker-end:url(#RoundedArrow)" id="path1357" d="m 158.29206,172.78572 -0.37251,-18.91508"/><path style="fill:none;stroke:#000;stroke-width:.465;stroke-linecap:butt;stroke-linejoin:miter;stroke-dasharray:none;stroke-opacity:1;marker-end:url(#RoundedArrow)" id="path1359" d="M 170.31702,172.68843 188.5669,153.08375"/><g id="g5252" transform="translate(-91.118272,-0.88523433)"><rect style="fill:#fff6d5;stroke:#000;stroke-width:.365;stroke-dasharray:none" id="rect234-3" width="47.599" height="127.574" x="132.007" y="31.282" ry="6.761"/><rect style="fill:green;stroke:#000;stroke-width:.7;stroke-dasharray:none" id="rect1108-7" width="20.233" height="104.026" x="146.087" y="42.408"/><path style="fill:none;stroke:#000;stroke-width:.4;stroke-linecap:butt;stroke-linejoin:miter;stroke-dasharray:none;stroke-opacity:1" id="path1228-3" d="M 155.94346,42.530392 V 146.34357"/><text xml:space="preserve" style="font-size:6.61583px;line-height:1.25;font-family:sans-serif;letter-spacing:0;word-spacing:0;stroke-width:.551318" id="text1168-5" x="135.229" y="154.856"><tspan id="tspan1166-6" style="stroke-width:.551318" x="135.229" y="154.856">Tag</tspan></text><path style="fill:none;stroke:#000;stroke-width:.264583px;stroke-linecap:butt;stroke-linejoin:miter;stroke-opacity:1" id="path2042" d="m 145.98208,51.426919 h 20.29626"/><path style="fill:none;stroke:#000;stroke-width:.264583px;stroke-linecap:butt;stroke-linejoin:miter;stroke-opacity:1" id="path2064" d="m 146.1662,60.659552 h 20.4552"/><path style="fill:none;stroke:#000;stroke-width:.264583px;stroke-linecap:butt;stroke-linejoin:miter;stroke-opacity:1" id="path2066" d="m 146.09062,71.529849 h 20.14057"/><path style="fill:none;stroke:#000;stroke-width:.264583px;stroke-linecap:butt;stroke-linejoin:miter;stroke-opacity:1" id="path2068" d="m 145.96165,116.56069 h 20.16203"/><path style="fill:none;stroke:#000;stroke-width:.264583px;stroke-linecap:butt;stroke-linejoin:miter;stroke-opacity:1" id="path2070" d="m 146.13001,126.49279 h 20.19802"/><path style="fill:none;stroke:#000;stroke-width:.264583px;stroke-linecap:butt;stroke-linejoin:miter;stroke-opacity:1" id="path2072" d="m 146.19706,136.75113 h 20.08336"/></g><path style="fill:none;stroke:#000;stroke-width:.264583px;stroke-linecap:butt;stroke-linejoin:miter;stroke-opacity:1;marker-end:url(#marker6776-6)" id="path6696-5" d="m 59.908176,120.29352 h 10.36912 l -9.92154,9.92155 h 9.91317 l -10.28265,10.28265 h 10.11942"/><path style="fill:none;stroke:#000;stroke-width:.264583px;stroke-linecap:butt;stroke-linejoin:miter;stroke-opacity:1" id="path6694-3" d="m 59.181897,45.765733 h 10.86311 l -10.77939,9.331952 h 10.28844 l -10.05797,10.662097 h 9.79391"/><g id="g5264" transform="translate(-213.82917,-1.7438565)"><rect style="fill:#fff6d5;stroke:#000;stroke-width:.365;stroke-dasharray:none" id="rect234-3-2" width="47.599" height="127.574" x="193.77" y="31.322" ry="6.761"/><rect style="fill:#a00;fill-opacity:.478893;fill-rule:nonzero;stroke:#000;stroke-width:.7;stroke-dasharray:2.8,2.8;stroke-dashoffset:0" id="rect1108-7-7" width="29.866" height="103.866" x="203.489" y="41.781"/><text xml:space="preserve" style="font-size:6.61583px;line-height:1.25;font-family:sans-serif;letter-spacing:0;word-spacing:0;stroke-width:.551318" id="text1168-5-0" x="196.993" y="154.897"><tspan id="tspan1166-6-9" style="stroke-width:.551318" x="196.993" y="154.897">Tag</tspan></text><path style="fill:none;stroke:#000;stroke-width:.264583px;stroke-linecap:butt;stroke-linejoin:miter;stroke-opacity:1" id="path2076" d="m 203.50806,51.328608 h 29.96373"/><path style="fill:none;stroke:#000;stroke-width:.264583px;stroke-linecap:butt;stroke-linejoin:miter;stroke-opacity:1" id="path2078" d="m 203.54597,60.699744 h 29.8171"/><path style="fill:none;stroke:#000;stroke-width:.264583px;stroke-linecap:butt;stroke-linejoin:miter;stroke-opacity:1" id="path2080" d="m 203.35926,71.597014 h 29.9533"/><path style="fill:none;stroke:#000;stroke-width:.264583px;stroke-linecap:butt;stroke-linejoin:miter;stroke-opacity:1" id="path2082" d="m 203.62729,116.55442 h 29.71697"/><path style="fill:none;stroke:#000;stroke-width:.264583px;stroke-linecap:butt;stroke-linejoin:miter;stroke-opacity:1" id="path2084" d="m 203.56003,126.60889 h 29.80002"/><path style="fill:none;stroke:#000;stroke-width:.264583px;stroke-linecap:butt;stroke-linejoin:miter;stroke-opacity:1" id="path2086" d="m 203.45252,136.71867 h 30.06041"/></g><text id="text7010" transform="matrix(0.5571141,0,0,0.5571141,329.56136,29.439922)" xml:space="preserve" style="font-size:12.0312px;line-height:1.25;font-family:sans-serif;letter-spacing:0;word-spacing:0;white-space:pre;shape-inside:url(#rect7012);display:inline"><tspan id="tspan2004" x="-161.654" y="33.482"><tspan style="font-family:'DejaVu Sans Mono';-inkscape-font-specification:'DejaVu Sans Mono'" id="tspan2002">offset</tspan></tspan></text><path style="fill:none;stroke:#000;stroke-width:.465;stroke-linecap:butt;stroke-linejoin:miter;stroke-dasharray:none;stroke-opacity:1;marker-end:url(#RoundedArrow)" id="path7053" d="m 237.13547,44.980308 c 0.82749,-0.255643 -28.68674,1.142898 -28.68674,1.142898"/><path style="fill:none;stroke:#000;stroke-width:.465;stroke-linecap:butt;stroke-linejoin:miter;stroke-dasharray:none;stroke-opacity:1;marker-end:url(#RoundedArrow-9)" id="path7053-0" d="m 237.50809,48.15532 c 0.82749,-0.255643 -29.26395,6.22719 -29.26395,6.22719"/><path style="fill:none;stroke:#000;stroke-width:.465;stroke-linecap:butt;stroke-linejoin:miter;stroke-dasharray:none;stroke-opacity:1;marker-end:url(#RoundedArrow)" id="path7057" d="M 237.92423,50.742567 209.33198,64.257848"/><text xml:space="preserve" style="font-size:6.70278px;line-height:1.25;font-family:sans-serif;letter-spacing:0;word-spacing:0;stroke-width:.493375" id="text7032" x="88.203" y="14.223"><tspan id="tspan7030" style="font-style:normal;font-variant:normal;font-weight:400;font-stretch:normal;font-size:6.70278px;font-family:'DejaVu Sans Mono';-inkscape-font-specification:'DejaVu Sans Mono';stroke-width:.493375" x="88.203" y="14.223">array_index</tspan></text><path style="fill:none;stroke:#000;stroke-width:.465;stroke-linecap:butt;stroke-linejoin:miter;stroke-dasharray:none;stroke-opacity:1;marker-end:url(#RoundedArrow)" id="path7049" d="m 118.38745,18.539178 c 0.77127,3.81761 4.44048,22.312641 4.44048,22.312641"/><path style="fill:none;stroke:#000;stroke-width:.465;stroke-linecap:butt;stroke-linejoin:miter;stroke-dasharray:none;stroke-opacity:1;marker-end:url(#RoundedArrow)" id="path7051" d="m 123.26843,19.007987 9.82064,21.981619"/><path style="fill:none;stroke:#000;stroke-width:.264583px;stroke-linecap:butt;stroke-linejoin:miter;stroke-opacity:1" id="path802" d="m 178.44743,46.123806 h 21.41158 l -21.08026,9.072438 h 20.17972 l -19.1209,11.039457 h 19.49012"/><path style="fill:none;stroke:#000;stroke-width:.265;stroke-linecap:butt;stroke-linejoin:miter;stroke-opacity:1;stroke-dasharray:none;marker-end:url(#marker6776)" id="path804" d="m 178.63912,120.8218 h 20.94332 l -20.33073,10.5419 h 20.30167 l -20.33044,9.90616 h 20.22786"/></g></svg>